<svg id="Camada_2" data-name="Camada 2" xmlns="http://www.w3.org/2000/svg" width="143.923" height="149.086" viewBox="0 0 143.923 149.086">
  <g id="Camada_1" data-name="Camada 1">
    <circle id="Elipse_12" data-name="Elipse 12" cx="5.935" cy="5.935" r="5.935" transform="translate(66.392 68.934)"/>
    <path id="Caminho_65" data-name="Caminho 65" d="M97.587,79.35a22.29,22.29,0,0,0-12.3,40.881h0l.319.206a21.734,21.734,0,0,0,3.327,1.757,22.37,22.37,0,0,0,17.965-.3,21.818,21.818,0,0,0,3.327-1.9A22.29,22.29,0,0,0,97.58,79.35Zm12.642,30.295a14.971,14.971,0,1,1-3.161-19.6A14.978,14.978,0,0,1,110.229,109.645Z" transform="translate(-25.193 -26.552)" fill="#fff"/>
    <path id="Caminho_66" data-name="Caminho 66" d="M102.961,138.826,95.077,124.64h48.846L107.939,62.32,71.961,0,35.977,62.32,0,124.64H49.045l-7.885,14.186-4.9-4.079L32,139.857l11.072,9.229,13.58-24.446H87.465l13.58,24.446,11.072-9.229-4.258-5.11ZM13.8,116.655l5.217-9.029,37.554-3.58v1.65h3.846V93.886l-.319-.206h0l-3.493.04v3.646l-33.469,3.187L42.9,66.312,71.961,15.969l29.064,50.343,18.93,32.79-31.1-3.061V93.719H85.036v12.023l3.819-.047v-2.968l35.2,3.467,6.042,10.46Z" fill="#fff"/>
    <rect id="Retângulo_41" data-name="Retângulo 41" width="17.965" height="36.596" rx="2.62" transform="translate(63.744 71.429)" fill="#fff"/>
    <path id="Caminho_67" data-name="Caminho 67" d="M110.349,102.35H95.87a5.077,5.077,0,0,0-5.07,5.09V140.55a5.077,5.077,0,0,0,5.07,5.07h14.479a5.077,5.077,0,0,0,5.07-5.07V107.44a5.077,5.077,0,0,0-5.07-5.09Zm1.743,38.18a1.75,1.75,0,0,1-1.743,1.743H95.87a1.75,1.75,0,0,1-1.743-1.743V107.44A1.75,1.75,0,0,1,95.87,105.7h14.479a1.75,1.75,0,0,1,1.743,1.743Z" transform="translate(-30.383 -34.248)" fill="#070707"/>
    <path id="Caminho_68" data-name="Caminho 68" d="M90.639,140.78v.213l-.319-.206Z" transform="translate(-30.223 -47.107)"/>
    <path id="Caminho_69" data-name="Caminho 69" d="M108.43,125.07H106.5l.965-1.67.965-1.67.965,1.67.965,1.67Z" transform="translate(-35.637 -40.733)" fill="#070707"/>
  </g>
</svg>
