<svg xmlns="http://www.w3.org/2000/svg" viewBox="0 0 216.3 187.32"><defs><style>.cls-1{fill:#fff;}</style></defs><title>benson_1</title><g id="Camada_2" data-name="Camada 2"><g id="Camada_1-2" data-name="Camada 1"><path class="cls-1" d="M108.15,24l43.68,75.66,43.68,75.66H20.78L64.47,99.66,108.15,24m0-24L54.08,93.66,0,187.32H216.3L162.23,93.66,108.15,0Z"/><path class="cls-1" d="M108.7,112.94a35.05,35.05,0,0,1,31,19c-6.05,12.06-18.07,19.92-31,19.92s-25-7.86-31-19.92a35.05,35.05,0,0,1,31-19m0-11a45.89,45.89,0,0,0-43,29.95c6.47,17.48,23.29,30.95,43,30.95s36.56-13.46,43-30.95a45.89,45.89,0,0,0-43-29.95Z"/><circle class="cls-1" cx="108.7" cy="132.53" r="8.92"/></g></g></svg>