<svg xmlns="http://www.w3.org/2000/svg" viewBox="0 0 273.88 273.35"><defs><style>.cls-1{fill:#fff;}</style></defs><title>benson2_1</title><g id="Camada_2" data-name="Camada 2"><g id="Camada_1-2" data-name="Camada 1"><circle class="cls-1" cx="136.34" cy="132.52" r="8.92"/><path class="cls-1" d="M136.44,110.35a22.5,22.5,0,1,1-22.5,22.5,22.53,22.53,0,0,1,22.5-22.5Zm0-11a33.5,33.5,0,1,0,33.5,33.5,33.5,33.5,0,0,0-33.5-33.5Z"/><path class="cls-1" d="M242.14,171.71l31.74-42.08L191.78,97l-1.92-3.33L135.79,0,81.71,93.66,79.1,98.18,0,129.63l31.74,42.08-2.39,4.15L33,178l-5.39,9.34h78.3v76h-7v10h17v-86h40v86h17v-10h-7v-76h78L239.12,179l5.41-3.12ZM37.88,161.08l-.71,1.22L15.88,134.07,71,112.16l-29.47,51Zm10.54,14.24L92.11,99.66,135.79,24l43.68,75.66,43.69,75.66Zm188.29-13-.71-1.22-5.41,3.12L199.85,111,258,134.07Z"/></g></g></svg>