<svg xmlns="http://www.w3.org/2000/svg" viewBox="0 0 353.74 261.35"><defs><style>.cls-1{fill:#fff;}</style></defs><title>benson-tnks</title><g id="Camada_2" data-name="Camada 2"><g id="Camada_1-2" data-name="Camada 1"><path class="cls-1" d="M344,158.32l-1.08,5.12-89.13-21.33-28-48.45L171.7,0,117.62,93.66l-8.05,13.94L13,84.49l.73-2.93L4,79.14l-4,16,9.69,2.48.89-3.42,93.77,22.44-40.8,70.68h63.92L111.24,221.5l16.21,29.85h-10.6v10h27.4L122.46,221.2l16.1-33.88h62.31l50.33,74h16.65v-10H256.5l-43.55-64h66.9L260.63,154l80.19,19.19-.86,4.09,9.78,2.06,4-19Zm-259.63,17L128,99.66,171.7,24l43.68,75.66,43.69,75.66Z"/><path class="cls-1" d="M172.35,99.35a33.5,33.5,0,0,0-33.5,33.5c0,12,6.32,14.12,15.81,14.12,5.14,0,11.2-.62,17.69-.62S184.9,147,190,147c9.49,0,15.81-2.11,15.81-14.12A33.5,33.5,0,0,0,172.35,99.35Zm22.27,36.26A21.42,21.42,0,0,1,190,136c-2.13,0-4.62-.13-7.24-.27l-2.17-.11a8.92,8.92,0,1,0-17.3-3.07,8.76,8.76,0,0,0,.55,3.08l-2,.1c-2.62.14-5.11.27-7.24.27a21.42,21.42,0,0,1-4.58-.36,13.85,13.85,0,0,1-.23-2.76,22.5,22.5,0,0,1,45,0A13.85,13.85,0,0,1,194.62,135.61Z"/></g></g></svg>